<?xml version="1.0" encoding="UTF-8"?>
<svg xmlns="http://www.w3.org/2000/svg" xmlns:xlink="http://www.w3.org/1999/xlink" width="15pt" height="15pt" viewBox="0 0 15 15" version="1.1">
<g id="surface1">
<path style=" stroke:none;fill-rule:nonzero;fill:rgb(64.705882%,86.27451%,41.176471%);fill-opacity:1;" d="M 12.363281 2.695312 C 12.363281 3.441406 11.757812 4.042969 11.015625 4.042969 C 10.269531 4.042969 9.667969 3.441406 9.667969 2.695312 C 9.667969 1.949219 10.269531 1.347656 11.015625 1.347656 C 11.757812 1.347656 12.363281 1.949219 12.363281 2.695312 Z M 12.363281 2.695312 "/>
<path style=" stroke:none;fill-rule:nonzero;fill:rgb(96.078431%,78.431373%,43.137255%);fill-opacity:1;" d="M 5.15625 1.464844 C 5.15625 2.113281 4.632812 2.636719 3.984375 2.636719 C 3.339844 2.636719 2.8125 2.113281 2.8125 1.464844 C 2.8125 0.816406 3.339844 0.292969 3.984375 0.292969 C 4.632812 0.292969 5.15625 0.816406 5.15625 1.464844 Z M 5.15625 1.464844 "/>
<path style=" stroke:none;fill-rule:nonzero;fill:rgb(100%,35.294118%,35.294118%);fill-opacity:1;" d="M 6.285156 4.042969 C 6.285156 3.296875 6.886719 2.695312 7.632812 2.695312 C 8.375 2.695312 8.980469 3.296875 8.980469 4.042969 Z M 6.285156 4.042969 "/>
<path style=" stroke:none;fill-rule:nonzero;fill:rgb(60.784314%,74.509804%,100%);fill-opacity:1;" d="M 0.617188 4.042969 L 0.617188 5.625 L 6.09375 11.105469 L 6.09375 14.707031 L 8.90625 13.710938 L 8.90625 11.105469 L 14.382812 5.625 L 14.382812 4.042969 Z M 0.617188 4.042969 "/>
<path style=" stroke:none;fill-rule:nonzero;fill:rgb(43.137255%,52.941176%,96.078431%);fill-opacity:1;" d="M 0.617188 4.042969 L 14.382812 4.042969 L 14.382812 5.625 L 0.617188 5.625 Z M 0.617188 4.042969 "/>
<path style=" stroke:none;fill-rule:nonzero;fill:rgb(0%,0%,0%);fill-opacity:1;" d="M 3.683594 8.988281 C 3.605469 8.988281 3.53125 8.957031 3.476562 8.902344 C 3.421875 8.847656 3.390625 8.769531 3.390625 8.695312 C 3.390625 8.617188 3.421875 8.542969 3.476562 8.488281 C 3.53125 8.433594 3.605469 8.402344 3.683594 8.402344 C 3.761719 8.402344 3.835938 8.433594 3.890625 8.488281 C 3.945312 8.542969 3.976562 8.617188 3.976562 8.695312 C 3.976562 8.769531 3.945312 8.847656 3.890625 8.902344 C 3.835938 8.957031 3.761719 8.988281 3.683594 8.988281 Z M 3.683594 8.988281 "/>
<path style=" stroke:none;fill-rule:nonzero;fill:rgb(0%,0%,0%);fill-opacity:1;" d="M 3.984375 2.929688 C 3.175781 2.929688 2.519531 2.273438 2.519531 1.464844 C 2.519531 1.074219 2.671875 0.707031 2.949219 0.429688 C 3.226562 0.152344 3.59375 0 3.984375 0 C 4.792969 0 5.449219 0.65625 5.449219 1.464844 C 5.449219 2.273438 4.792969 2.929688 3.984375 2.929688 Z M 3.984375 0.585938 C 3.75 0.585938 3.53125 0.675781 3.363281 0.84375 C 3.199219 1.007812 3.105469 1.230469 3.105469 1.464844 C 3.105469 1.949219 3.5 2.34375 3.984375 2.34375 C 4.46875 2.34375 4.863281 1.949219 4.863281 1.464844 C 4.863281 0.980469 4.46875 0.585938 3.984375 0.585938 Z M 3.984375 0.585938 "/>
<path style=" stroke:none;fill-rule:nonzero;fill:rgb(0%,0%,0%);fill-opacity:1;" d="M 14.382812 3.75 L 12.269531 3.75 C 12.511719 3.464844 12.65625 3.097656 12.65625 2.695312 C 12.65625 1.789062 11.917969 1.054688 11.015625 1.054688 C 10.578125 1.054688 10.164062 1.226562 9.855469 1.535156 C 9.542969 1.84375 9.375 2.257812 9.375 2.695312 C 9.375 3.085938 9.511719 3.453125 9.757812 3.75 L 9.246094 3.75 C 9.109375 2.984375 8.4375 2.402344 7.632812 2.402344 C 7.195312 2.402344 6.78125 2.574219 6.472656 2.882812 C 6.234375 3.121094 6.078125 3.421875 6.019531 3.75 L 0.617188 3.75 C 0.453125 3.75 0.324219 3.882812 0.324219 4.042969 L 0.324219 5.625 C 0.324219 5.703125 0.351562 5.777344 0.40625 5.832031 L 2.714844 8.140625 C 2.828125 8.253906 3.015625 8.253906 3.128906 8.140625 C 3.242188 8.023438 3.242188 7.839844 3.128906 7.726562 L 1.324219 5.917969 L 11.425781 5.917969 C 11.585938 5.917969 11.71875 5.785156 11.71875 5.625 C 11.71875 5.464844 11.585938 5.332031 11.425781 5.332031 L 0.910156 5.332031 L 0.910156 4.335938 L 14.089844 4.335938 L 14.089844 5.503906 L 8.699219 10.894531 C 8.644531 10.953125 8.613281 11.027344 8.613281 11.105469 L 8.613281 13.503906 L 6.386719 14.292969 L 6.386719 11.105469 C 6.386719 11.027344 6.355469 10.953125 6.300781 10.894531 L 4.632812 9.226562 C 4.515625 9.113281 4.332031 9.113281 4.214844 9.226562 C 4.101562 9.339844 4.101562 9.527344 4.214844 9.640625 L 5.800781 11.226562 L 5.800781 14.707031 C 5.800781 14.800781 5.847656 14.890625 5.925781 14.945312 C 5.976562 14.980469 6.035156 15 6.09375 15 C 6.125 15 6.160156 14.996094 6.191406 14.984375 L 9.003906 13.988281 C 9.121094 13.945312 9.199219 13.835938 9.199219 13.710938 L 9.199219 11.226562 L 14.59375 5.832031 C 14.648438 5.777344 14.675781 5.703125 14.675781 5.625 L 14.675781 4.042969 C 14.675781 3.882812 14.546875 3.75 14.382812 3.75 Z M 10.269531 3.441406 C 10.070312 3.242188 9.960938 2.976562 9.960938 2.695312 C 9.960938 2.414062 10.070312 2.148438 10.269531 1.949219 C 10.46875 1.75 10.734375 1.640625 11.015625 1.640625 C 11.597656 1.640625 12.070312 2.113281 12.070312 2.695312 C 12.070312 3.277344 11.597656 3.75 11.015625 3.75 C 10.734375 3.75 10.46875 3.640625 10.269531 3.441406 Z M 6.886719 3.296875 C 7.085938 3.097656 7.351562 2.988281 7.632812 2.988281 C 8.113281 2.988281 8.519531 3.3125 8.644531 3.75 L 6.621094 3.75 C 6.667969 3.582031 6.757812 3.425781 6.886719 3.296875 Z M 6.886719 3.296875 "/>
<path style=" stroke:none;fill-rule:nonzero;fill:rgb(0%,0%,0%);fill-opacity:1;" d="M 12.507812 5.917969 C 12.433594 5.917969 12.355469 5.886719 12.300781 5.832031 C 12.25 5.777344 12.214844 5.703125 12.214844 5.625 C 12.214844 5.546875 12.25 5.472656 12.300781 5.417969 C 12.355469 5.363281 12.433594 5.332031 12.507812 5.332031 C 12.585938 5.332031 12.664062 5.363281 12.71875 5.417969 C 12.769531 5.472656 12.800781 5.546875 12.800781 5.625 C 12.800781 5.703125 12.769531 5.777344 12.71875 5.832031 C 12.664062 5.886719 12.585938 5.917969 12.507812 5.917969 Z M 12.507812 5.917969 "/>
</g>
</svg>
